<svg width="39" height="39" viewBox="0 0 39 39" fill="none" xmlns="http://www.w3.org/2000/svg">
<path d="M19.5 0C8.7477 0 0 8.7477 0 19.5C0 30.2523 8.7477 39 19.5 39C30.2523 39 39 30.2523 39 19.5C39 8.7477 30.2523 0 19.5 0ZM3.9 19.5C3.9 17.747 4.2042 16.0641 4.74045 14.4904L7.8 17.55L11.7 21.45V25.35L15.6 29.25L17.55 31.2V34.9655C9.86895 34.0002 3.9 27.4404 3.9 19.5ZM31.8435 29.0023C30.5702 27.9766 28.6397 27.3 27.3 27.3V25.35C27.3 24.3157 26.8891 23.3237 26.1577 22.5923C25.4263 21.8609 24.4343 21.45 23.4 21.45H15.6V15.6C16.6343 15.6 17.6263 15.1891 18.3577 14.4577C19.0891 13.7263 19.5 12.7343 19.5 11.7V9.75H21.45C22.4843 9.75 23.4763 9.33911 24.2077 8.60772C24.9391 7.87633 25.35 6.88434 25.35 5.85V5.04855C31.0596 7.3671 35.1 12.9675 35.1 19.5C35.0996 22.9412 33.9539 26.2843 31.8435 29.0023Z" fill="white"/>
</svg>
